# xmcd CD database file
#
# Track frame offsets:
#	150
#	15355
#	31247
#	46595
#	61142
#	79842
#	95657
#	109595
#	126740
#	147617
#	164555
#	179197
#	196732
#	222152
#
# Disc length: 3282 seconds
#
# Revision: 28
# Processed by: cddbd v1.5.1PL2 Copyright (c) Steve Scherf et al.
# Submitted via: CDex 1.51
#
DISCID=c60cd00e
DTITLE=Norah JONES - feels like home
DYEAR=2004
DGENRE=Jazz
TTITLE0=sunrise
TTITLE1=what am i to you
TTITLE2=those sweet words
TTITLE3=carnival town
TTITLE4=in the morning
TTITLE5=be here to love me
TTITLE6=creepin' in
TTITLE7=toes
TTITLE8=humble me
TTITLE9=a love ground
TTITLE10=the long way home
TTITLE11=the prettiest thing
TTITLE12=don't miss you at all
TTITLE13=Datatrack
EXTD=YEAR: 2004
EXTT0=
EXTT1=
EXTT2=
EXTT3=
EXTT4=
EXTT5=
EXTT6=
EXTT7=
EXTT8=
EXTT9=
EXTT10=
EXTT11=
EXTT12=
EXTT13=
PLAYORDER=
